# xmcd CD database file
#
# Track frame offsets:
#	150
#	21000
#	63077
#	76420
#	93137
#	104837
#	135792
#	159682
#	191030
#	215472
#	233995
#
# Disc length: 3355 seconds
#
# Revision: 0
# Processed by: cddbd v1.5.1PL2 Copyright (c) Steve Scherf et al.
# Submitted via: CDex 1.51
#
DISCID=8a0d190b
DTITLE=Penguin Cafe Orchestra - Concert Program2
DYEAR=1995
DGENRE=New Age
TTITLE0=Beanfields
TTITLE1=Vega
TTITLE2=Surface Tension
TTITLE3=Oscar Tango
TTITLE4=Music For A Found Harmonium
TTITLE5=Lifeboat (Lovers Rock)
TTITLE6=Steady State
TTITLE7=Scherzo And Trio
TTITLE8=Gile Farnaby's Dream
TTITLE9=Salty Beam Fumble
TTITLE10=Red Shorts
EXTD=YEAR: 1995
EXTT0=
EXTT1=
EXTT2=
EXTT3=
EXTT4=
EXTT5=
EXTT6=
EXTT7=
EXTT8=
EXTT9=
EXTT10=
PLAYORDER=
